<svg xmlns="http://www.w3.org/2000/svg" xml:space="preserve" viewBox="0 0 692 418"><path fill="#FEFEFE" d="M516 419H1V1h692v418zM91.35 236.857c-.454.064-.907.127-2.288.108-4.677.062-9.354.123-14.767-.044-1.11.319-2.22.638-4.24 1.045-1.663-.02-3.328-.087-4.99-.052-6.832.143-8.93 2.16-7.988 9.093.466 3.43 2.577 6.618 3.819 9.963 3.288 8.855 6.72 9.698 14.976 5.068 6.596-3.7 13.55-7.915 20.796-9.072 17.977-2.87 36.213-4.122 54.914-5.597 5.804-.465 11.608-.93 18.16-1.252a34 34 0 0 1 2.84-.124c.197-.314.394-.628 1.507-.95 10.31-.384 20.621-.768 31.712-1.012l6.647-.893c31.762 112.577 145.941 150.106 220.766 122.19L407.89 205.591c-15.259.72-30.036 1.683-44.827 1.973-5.25.103-6.507 2.584-7.017 6.815 6.989.995 12.822 8.409 12.02 14.92-.908 7.375-7.105 12.402-14.387 11.79-2.101-.178-4.23-.028-5.806-.028-3.22 7.442-5.616 14.748-9.363 21.279-8.073 14.072-16.69 27.841-25.432 41.513-2.184 3.417-5.541 6.152-8.618 8.912-3.745 3.358-12.375 3.12-16.165-.159-3.88-3.358-5.772-11.93-3.075-16.023 2.821-4.28 5.556-8.967 9.422-12.148 13.443-11.063 21.878-25.666 30.088-40.501.943-1.706 1.3-3.736 2.067-6.023-4.187-.3-7.493-.537-11.72-.957-22.017.037-44.034.073-66.8-.086-.765.072-1.529.145-2.957.113-.442.054-.883.108-2.186-.015-6.376.391-12.753.783-19.843 1.01-1.09.386-2.18.773-4.172.973-4.374.395-8.749.79-13.922 1.004-16.735 1.003-33.47 2.006-50.86 2.8-.445.078-.89.155-2.208.116-8.222.621-16.414 2.61-24.711.958 13.773-3.424 27.562-6.29 41.405-8.872 11.377-2.121 22.817-3.903 34.973-5.717.742-.11 1.484-.218 2.962-.245.7-.225 1.4-.45 2.572.066l1.454 4.082c13.945-1.06 27.645-1.96 41.314-3.203 6.672-.606 13.285-1.85 20.726-2.679 2.091-.16 4.182-.32 7.189-.481 16.086-2.19 32.186-4.281 48.252-6.606 8.701-1.26 9.155-1.925 10.796-11.977-45.25 5.346-90.146 10.65-135.774 15.925-1.435.271-2.87.543-4.957.609-.443.084-.885.168-2.208.173-3.115.444-6.224.93-9.345 1.324a56530 56530 0 0 1-61.668 7.735 2117 2117 0 0 1-23.84 2.848c-.4.014-.8.028-2.093-.054-2.386.096-4.772.192-7.826.101m116.315-49.06c.07 7.746.141 15.493-.044 23.877.098.438.197.876.138 2.176l.536 4.12c44.773-4.754 88.646-12.085 132.773-13.35 7.135-20.686 12.05-40.726 14.122-61.426 1.675-16.728 3.215-33.473 5.23-50.161.807-6.682 1.954-13.414 8.614-17.66 6.785-4.327 13.754-4.444 21.08-2.421 6.447 1.78 10.151 6.725 10.749 13.398.978 10.924 1.969 21.856 3.36 32.733 2.447 19.135 5.187 38.234 7.834 57.344 1.084 7.827 2.243 15.645 3.374 23.514 1.796 0 3.116-.005 4.435.001 34.475.163 68.951.306 103.427.512 6.41.038 11.983 2.182 16.58 6.877 5.84 5.967 7.88 12.882 5.32 21.443l8.26-2.186c2.674-16.18 3.063-32.327.949-48.396-5.575-42.376-23.671-78.559-55.276-107.516-28.945-26.522-62.92-42.09-103.063-45.62-10.293.143-20.586.286-31.717.391-2.951.401-5.903.802-9.033 1.119 0 0-.296.212-1.159.121-11.353 2.958-23.116 4.857-33.987 9.06-44.873 17.346-77.627 47.995-97.728 91.853-8.352 18.224-13.44 37.323-14.793 58.037.076.44.153.88.02 2.16m233.111 172.901c2.198 7.133 3.87 14.483 6.71 21.35 4.889 11.823 19.103 16.305 30.566 10.355 2.445-1.269 3.301-2.772 2.88-5.519-1.22-7.937-8.28-14.688-16.67-15.221-1.783-.113-3.65 1.118-6.526 2.08l-7.435-14.11c19.548-8.923 36.258-19.89 50.957-33.931 12.727-12.157 23.348-25.897 32.05-41.165 3-5.264 4.741-5.78 9.934-2.533 4.901 3.064 8.944 6.9 9.97 13.05.408 2.44 1.086 4.852 1.842 7.212 1.99 6.213 10.252 11.545 15.914 10.374 7.276-1.506 10.917-6.664 10.168-14.868-.527-5.778-.66-11.748-2.322-17.222-1.737-5.722-4.052-11.895-7.951-16.212-9.516-10.535-25.436-11.155-39.608-2.772-10.357 6.126-12.308 5.72-19.654-4.112-.697-.933-1.325-1.916-2.008-2.86-4.807-6.642-4.184-13.155.048-19.88 2.268-3.603 3.895-7.609 5.82-11.428.67-1.33 1.367-2.648 2.137-4.136-9.442-11.774-65.663-14.599-101.189-13.007.794 5.717 1.564 11.387 2.37 17.052 4.4 30.964 8.566 61.965 13.32 92.875 2.258 14.69 5.641 29.206 8.677 44.628m-51.06-159.508 17.37-1.086c-5.977-29.756-10.493-59.43-22.825-88.473-11.49 30.322-15.597 61.233-25.225 91.042 10.478-.51 20.104-.98 30.68-1.483M569.65 338.946c6.618-.56 9.53-2.721 11.191-8.31 1.456-4.894-.15-9.881-4.093-12.71-4.05-2.905-8.762-2.632-13.094-.289-6.371 3.447-4.208 9.575-4 14.214.175 3.914 4.69 6.49 9.996 7.095"/><path fill="#010101" d="M355.49 26.65c2.953-.4 5.905-.802 9.724-1.013 1.18.248 1.492.307 2.084.677 6.705.435 13.132.668 19.557.63 2.698-.016 5.393-.606 8.556-1.008a17 17 0 0 0 1.378-.328c39.417 2.978 73.392 18.546 102.337 45.068 31.605 28.957 49.7 65.14 55.276 107.516 2.114 16.069 1.725 32.217-.95 48.396l-8.26 2.186c2.56-8.561.522-15.476-5.32-21.443-4.596-4.695-10.17-6.839-16.579-6.877-34.476-.206-68.952-.349-103.427-.512-1.32-.006-2.639 0-4.435 0-1.131-7.87-2.29-15.688-3.374-23.515-2.647-19.11-5.387-38.209-7.834-57.344-1.391-10.877-2.382-21.809-3.36-32.733-.598-6.673-4.302-11.618-10.749-13.398-7.326-2.023-14.295-1.906-21.08 2.42-6.66 4.247-7.807 10.98-8.614 17.66-2.015 16.689-3.555 33.434-5.23 50.162-2.072 20.7-6.987 40.74-14.122 61.427-44.127 1.264-88 8.595-132.773 13.35-.177-1.36-.357-2.74-.054-4.637.876-.989 1.608-1.457 1.614-1.933.095-8.049.156-16.099.036-24.146-.011-.757-1.283-1.496-1.97-2.244 1.078-20.088 6.166-39.187 14.518-57.41 20.1-43.86 52.855-74.508 97.728-91.854 10.871-4.203 22.634-6.102 34.463-8.642a57 57 0 0 0 2.118 1.632l.707-1.036z"/><path fill="#020202" d="m316 237.137 10.797.775c-.766 2.287-1.124 4.317-2.067 6.023-8.21 14.835-16.645 29.438-30.088 40.5-3.866 3.182-6.6 7.868-9.422 12.15-2.697 4.093-.805 12.664 3.075 16.022 3.79 3.28 12.42 3.517 16.165.159 3.077-2.76 6.434-5.495 8.618-8.912 8.742-13.672 17.359-27.441 25.432-41.513 3.747-6.531 6.144-13.837 9.363-21.279 1.576 0 3.705-.15 5.806.027 7.282.613 13.479-4.414 14.387-11.789.802-6.511-5.031-13.925-12.02-14.92.51-4.23 1.767-6.712 7.017-6.815 14.79-.29 29.568-1.253 44.827-1.973l25.324 159.735c-74.825 27.917-189.004-9.612-220.766-122.189-2.164.29-4.406.592-7.05.506-.38-.81-.357-1.232-.008-1.648.76.001 1.195-.003 2.064-.01 4.457-.34 8.479-.675 12.888-1 1.808.01 3.228.01 4.814.01l-1.151-2.855c6.376-.391 12.753-.783 19.477-.733-1.246 1.033-2.84 1.626-4.433 2.219l.072.657c2.285-.414 4.57-.828 7.326-1.257 21.623-.017 42.776.007 63.928-.068 1.881-.006 3.76-.657 5.633-1.212-.005-.203-.009-.61-.009-.61M440.696 360.284c-2.955-15.008-6.338-29.525-8.596-44.214-4.754-30.91-8.92-61.91-13.32-92.875-.806-5.665-1.576-11.335-2.37-17.052 35.526-1.592 91.747 1.233 101.189 13.007-.77 1.488-1.466 2.806-2.137 4.136-1.925 3.82-3.552 7.825-5.82 11.427-4.232 6.726-4.855 13.239-.048 19.881.683.944 1.311 1.927 2.008 2.86 7.346 9.832 9.297 10.238 19.654 4.112 14.172-8.383 30.092-7.763 39.608 2.772 3.899 4.317 6.214 10.49 7.951 16.212 1.663 5.474 1.795 11.444 2.322 17.222.75 8.204-2.892 13.362-10.168 14.868-5.662 1.171-13.924-4.16-15.914-10.374-.756-2.36-1.434-4.772-1.841-7.211-1.027-6.151-5.07-9.987-9.971-13.051-5.193-3.246-6.935-2.73-9.934 2.533-8.702 15.268-19.323 29.008-32.05 41.165-14.699 14.04-31.41 25.008-50.957 33.932l7.435 14.109c2.876-.962 4.743-2.193 6.526-2.08 8.39.533 15.45 7.284 16.67 15.221.421 2.747-.435 4.25-2.88 5.52-11.463 5.95-25.677 1.467-30.566-10.355-2.84-6.868-4.512-14.218-6.791-21.765m3.27-152.29 2.826-.322c-8.657-.663-17.274-.73-25.887-.579-1.074.019-2.13 1.185-2.76 1.562 4.053-.224 8.014-.536 11.98-.637 4.318-.11 8.64-.024 13.84-.024"/><path fill="#050505" d="M389.242 201.207c-10.101.486-19.727.955-30.205 1.466 9.628-29.809 13.735-60.72 25.225-91.042 12.332 29.044 16.848 58.717 22.826 88.473-5.935.371-11.653.728-17.846 1.103"/><path fill="#080808" d="M101.895 236.807c7.738-.947 15.478-1.879 23.214-2.845a56530 56530 0 0 0 61.668-7.735c3.121-.394 6.23-.88 9.861-.943 1.73.912 2.942 1.442 4.155 1.972l.271-.658-2.081-1.662c1.434-.272 2.869-.544 4.788-.607.693.445.949.6 1.474.958 1.4.445 2.58.611 3.679.975-.076.817-.071 1.437-.067 2.057-.7.225-1.4.45-2.38.348-.674-.762-1.068-1.199-1.462-1.635l-1.962 2.089c-11.413 1.932-22.853 3.714-34.23 5.835-13.843 2.581-27.632 5.448-41.405 8.872 8.297 1.652 16.489-.337 25.111-.57-.239 1.486-.878 2.585-1.517 3.685-18.131 1.901-36.367 3.152-54.344 6.023-7.246 1.157-14.2 5.373-20.796 9.072-8.255 4.63-11.688 3.787-14.976-5.068-1.242-3.345-3.353-6.534-3.819-9.963-.943-6.932 1.156-8.95 7.987-9.093 1.663-.035 3.328.032 5.63.3 1.872-.189 3.104-.626 4.337-1.064 4.677-.062 9.354-.123 14.614.238 4.631 1.932 8.66 3.235 12.25-.58"/><path fill="#060606" d="M209.094 228.69c-.241-.991-.246-1.61.147-2.457.847-.392 1.298-.558 3.116-1.226h-7.334c-.303-.077-.56-.233-.886-.663 44.778-5.498 89.675-10.802 134.924-16.148-1.64 10.052-2.095 10.718-10.796 11.977-16.066 2.325-32.166 4.417-48.856 6.204-3.13-1.574-5.685-2.912-7.386.756-6.64.955-13.253 2.2-19.925 2.806-13.669 1.243-27.369 2.142-41.314 3.203-.49-1.376-.972-2.73-1.69-4.453M284.88 224l-3.737.202.15 1.06c1.417-.399 2.834-.797 3.587-1.262m7.449-1.01-2.341.144.14.818c.953-.316 1.906-.633 2.2-.962M569.247 338.93c-4.903-.589-9.418-3.165-9.593-7.08-.208-4.638-2.371-10.766 4-14.213 4.332-2.343 9.045-2.616 13.094.29 3.942 2.828 5.549 7.815 4.093 12.708-1.662 5.59-4.573 7.752-11.594 8.296"/><path fill="#252525" d="M205.064 241.99c-.023.422-.047.845-.057 1.584-10.297.7-20.608 1.085-31.622 1.548-.928.326-1.152.572-1.376.819-.756.058-1.511.117-2.8-.159-1.443-.82-2.355-1.307-2.96-2.08 4.441-.487 8.576-.729 12.714-.875 8.7-.305 17.4-.56 26.101-.837"/><path fill="#080808" d="M205.39 241.996c-9.026.27-17.727.525-26.427.831-4.138.146-8.273.388-13.162.877-4.104-.054-7.457-.398-10.809-.742 16.735-1.002 33.47-2.005 50.706-2.671.775.79 1.049 1.244 1.322 1.697-.435.005-.87.01-1.63.008"/><path fill="#292929" d="M316.013 237.95c-1.879.352-3.757 1.003-5.638 1.01-21.152.074-42.305.05-63.915-.26-.464-.746-.47-1.18-.476-1.614.764-.072 1.528-.145 2.955.181 22.8.493 44.937.588 67.074.683"/><path d="M316.008 237.747c-22.132.108-44.27.013-66.695-.382 21.73-.337 43.747-.373 66.225-.319.461.091.465.498.47.701"/><path fill="#161616" d="M154.665 242.859c3.68.447 7.032.791 10.831 1.132 1.358.484 2.27.97 3.34 1.72-5.646.728-11.45 1.193-17.539 1.445.354-1.313.993-2.412 1.668-3.841.481-.406.927-.483 1.7-.456"/><path fill="#0B0B0B" d="M367.02 26.003a11 11 0 0 1-1.388-.347 695 695 0 0 1 30.794-.324c.06.36-.244.446-1.477.607-9.93.072-18.93.068-27.93.064"/><path fill="#010101" d="M207.877 211.036c-.07-7.746-.141-15.493.219-23.386.59 4.888.907 9.924.848 14.955-.034 2.815-.691 5.621-1.067 8.431"/><path fill="#181818" d="M207.749 211.355c.504-3.129 1.161-5.935 1.195-8.75.059-5.031-.258-10.067-.743-15.375-.402-.714-.479-1.153-.418-1.906.825.435 2.097 1.174 2.108 1.931.12 8.047.06 16.097-.036 24.146-.006.476-.738.944-1.536 1.502-.501-.353-.6-.791-.57-1.548"/><path fill="#252525" d="M207.454 241.985c-.707-.45-.981-.904-1.357-1.603 4.273-.641 8.648-1.037 13.467-1.032.428.808.41 1.217.391 1.626-4.022.335-8.044.67-12.5 1.01"/><path fill="#2F2F2F" d="M101.582 236.809c-3.276 3.814-7.306 2.51-11.473.62.334-.445.787-.508 1.828-.174 3.101.13 5.616-.137 8.132-.404.4-.013.8-.027 1.513-.042"/><path fill="#1F1F1F" d="M272.424 227.196c1.3-3.73 3.854-2.393 6.527-.819-1.945.562-4.036.723-6.527.82"/><path fill="#080808" d="M220.342 240.986c-.369-.419-.35-.828-.327-1.543 1.096-.693 2.186-1.08 3.633-1.384.702.939 1.048 1.795 1.508 2.937-1.586 0-3.006 0-4.814-.01M245.652 237.034c.338.486.344.92.338 1.681-2.298.74-4.584 1.155-6.87 1.569l-.071-.657c1.594-.593 3.187-1.186 4.863-2.13.525-.407.966-.46 1.74-.463"/><path fill="#2F2F2F" d="M74.663 237.035c-.865.553-2.097.99-3.514 1.136.925-.612 2.035-.931 3.514-1.136"/><path fill="#080808" d="M99.622 236.804c-2.069.314-4.584.581-7.351.544 2.133-.4 4.519-.496 7.351-.544"/><path fill="#1F1F1F" d="M198.656 224.833c1.02.657 1.714 1.21 2.408 1.765l-.271.658c-1.213-.53-2.426-1.06-3.714-1.933.366-.425.808-.51 1.577-.49M203.424 229.18c.283-.756.937-1.452 1.59-2.148.395.436.79.873 1.095 1.595-.83.394-1.571.503-2.685.553"/><path fill="#0B0B0B" d="M355.402 26.608c.744.392 1.399.743 2.053 1.093l-.707 1.036c-.547-.405-1.095-.81-1.687-1.587-.044-.372.252-.584.341-.542"/><path fill="#161616" d="M172.296 245.967c-.063-.273.161-.52.63-.841.05.239-.147.553-.63.841"/><path fill="#242424" d="M367.298 26.314c8.721-.307 17.721-.303 27.184-.302-2.234.326-4.929.916-7.627.932-6.425.038-12.852-.195-19.557-.63"/><path fill="#282828" d="M443.526 207.994c-4.76 0-9.083-.086-13.401.024-3.966.1-7.927.413-11.98.637.63-.377 1.686-1.543 2.76-1.562 8.613-.15 17.23-.084 25.887.579a84 84 0 0 1-3.266.322"/><path fill="#1F1F1F" d="M205.245 225.287c1.72-.28 3.662-.28 7.112-.28-1.818.668-2.269.834-3.036 1.028-1.496-.137-2.676-.303-4.076-.748M285.213 224.033c-1.085.431-2.502.83-3.919 1.227l-.15-1.059c1.245-.067 2.49-.135 4.069-.168M292.659 222.996c-.624.322-1.577.639-2.53.955l-.14-.818c.78-.048 1.56-.096 2.67-.137"/></svg>