<svg xmlns="http://www.w3.org/2000/svg" width="140" height="102" viewBox="0 0 140 102">
<g>
<path d="M 87.80 75.85 C85.38,77.03 80.71,78.19 77.44,78.44 C62.92,79.55 52.28,73.32 46.24,60.19 C44.16,55.67 43.85,53.72 44.17,47.19 C44.61,38.12 47.42,31.66 53.17,26.46 C59.87,20.41 63.83,19.00 74.14,19.00 C84.89,19.00 89.96,20.89 96.05,27.18 C101.64,32.93 103.31,37.26 103.81,47.24 C104.21,55.22 104.00,56.47 101.51,61.57 C98.21,68.31 93.73,72.99 87.80,75.85 ZM 63.68 71.57 C72.90,76.09 84.33,74.19 91.79,66.90 C103.93,55.03 101.23,33.47 86.70,26.21 C68.82,17.28 49.00,28.99 49.00,48.50 C49.00,59.24 53.76,66.71 63.68,71.57 ZM 80.57 66.67 C76.01,68.42 71.00,68.16 66.50,65.96 C61.94,63.74 57.00,58.44 57.00,55.79 C57.00,53.02 60.36,53.64 62.73,56.85 C65.17,60.15 70.62,63.00 74.51,63.00 C78.10,63.00 84.48,59.34 86.07,56.37 C87.38,53.93 90.39,53.20 91.53,55.04 C92.99,57.40 86.32,64.47 80.57,66.67 ZM 86.50 42.01 C85.75,44.36 82.76,44.63 81.00,42.50 C79.46,40.64 81.25,38.00 84.06,38.00 C86.39,38.00 87.30,39.49 86.50,42.01 ZM 67.50 41.00 C67.50,42.83 66.90,43.59 65.25,43.82 C62.79,44.17 61.39,42.02 62.39,39.43 C62.75,38.49 63.89,37.99 65.25,38.18 C66.90,38.41 67.50,39.17 67.50,41.00 Z" fill="rgb(27,27,27)"/>
</g>
</svg>