<svg xmlns="http://www.w3.org/2000/svg" width="532" height="354" viewBox="0 0 532 354">
<g>
<path d="M 289.79 333.92 C280.65,339.08 277.17,338.27 260.74,327.17 C255.11,323.36 249.49,319.73 248.26,319.10 C246.67,318.28 241.04,318.14 228.74,318.62 C228.16,318.64 227.60,318.66 227.04,318.68 C216.61,319.10 211.24,319.31 207.26,317.06 C202.82,314.55 200.12,308.98 194.07,297.23 L 186.50 282.50 L 172.71 275.39 C161.38,269.55 155.82,266.70 153.21,262.16 C150.70,257.79 150.92,251.84 151.36,240.12 L 151.37 239.84 L 152.03 222.15 L 148.91 216.82 C147.20,213.90 144.28,209.39 142.44,206.81 C137.31,199.64 133.00,190.43 133.00,186.68 C133.00,182.64 135.48,177.80 144.95,163.35 L 152.05 152.50 L 151.38 134.45 C150.55,111.88 150.73,111.37 161.78,104.72 C166.02,102.16 171.75,99.09 174.50,97.88 C185.45,93.09 186.24,92.23 193.94,76.62 C204.69,54.82 206.18,53.98 230.45,55.89 C245.80,57.10 247.14,56.82 255.00,50.90 C265.63,42.88 273.92,38.20 278.85,37.41 C283.84,36.61 287.84,38.39 300.68,47.08 C308.46,52.35 312.07,54.85 316.06,55.87 C319.67,56.79 323.59,56.49 331.19,55.92 C331.50,55.89 331.82,55.87 332.14,55.84 C355.16,54.09 355.78,54.48 367.50,77.65 L 374.50 91.50 L 388.37 98.68 C396.00,102.63 403.53,107.09 405.10,108.59 C409.77,113.07 410.33,116.42 409.57,135.40 L 408.89 152.50 L 416.41 163.92 C425.07,177.06 428.00,182.84 427.99,186.74 C427.98,190.70 424.35,197.92 416.11,210.42 L 408.90 221.34 L 409.59 239.45 C410.53,264.08 410.33,264.42 388.00,275.69 L 374.50 282.50 L 367.00 297.15 C361.00,308.86 358.30,314.44 353.86,316.98 C349.82,319.28 344.34,319.06 333.63,318.62 C333.08,318.60 332.52,318.58 331.94,318.55 L 314.29 317.84 L 304.76 324.35 C299.53,327.92 292.79,332.23 289.79,333.92 ZM 278.11 325.92 C279.42,326.44 280.63,326.90 280.80,326.94 C281.68,327.12 288.55,322.99 296.50,317.49 C303.58,312.59 306.93,310.12 310.70,308.96 C314.51,307.78 318.74,307.94 327.68,308.30 C328.47,308.33 329.29,308.36 330.15,308.40 C331.55,308.45 332.85,308.51 334.06,308.56 C342.03,308.90 346.01,309.07 348.85,307.36 C352.10,305.40 353.87,300.97 358.46,291.50 C361.93,284.35 366.05,277.29 367.63,275.81 C369.21,274.34 376.58,269.93 384.00,266.02 C391.42,262.11 398.09,258.15 398.82,257.21 C399.86,255.86 400.00,251.78 399.48,238.00 C399.01,225.80 399.15,219.61 399.95,217.57 C400.58,215.96 403.99,210.21 407.53,204.80 C411.08,199.39 414.90,193.16 416.02,190.95 L 418.07 186.94 L 415.69 182.19 C414.38,179.58 410.61,173.40 407.33,168.47 C403.42,162.61 401.27,159.44 400.16,155.95 C398.80,151.67 398.99,146.90 399.43,136.10 L 399.46 135.24 L 400.18 117.50 L 397.25 115.34 C395.63,114.15 388.96,110.48 382.41,107.18 C375.86,103.89 369.06,99.68 367.31,97.84 C365.55,96.00 361.46,88.88 358.21,82.00 C354.95,75.12 351.33,68.64 350.15,67.60 C348.16,65.84 346.88,65.75 332.51,66.39 C322.12,66.85 315.64,66.71 312.86,65.96 C310.58,65.35 303.08,61.06 296.18,56.42 C289.22,51.74 282.60,48.00 281.28,48.00 C278.09,48.00 274.24,50.07 263.33,57.66 C256.92,62.12 253.52,64.50 249.74,65.69 C245.41,67.05 240.58,66.85 230.17,66.42 L 229.89 66.41 C214.14,65.75 212.84,65.83 210.86,67.60 C209.70,68.65 205.87,75.34 202.36,82.47 C198.84,89.60 194.53,96.92 192.77,98.73 C191.02,100.55 185.29,104.12 180.04,106.69 C174.79,109.25 168.31,112.69 165.64,114.33 L 160.78 117.31 L 161.51 135.17 C162.06,148.88 161.93,153.78 160.93,156.26 C160.22,158.04 156.29,164.66 152.21,170.96 C148.13,177.26 144.39,183.48 143.90,184.77 C142.80,187.66 143.71,189.55 153.86,205.50 L 161.50 217.50 L 161.24 236.70 C161.21,238.35 161.19,239.88 161.16,241.28 C161.00,249.88 160.92,254.02 162.76,256.95 C164.77,260.16 169.07,261.92 178.04,266.48 C184.94,269.99 191.88,274.13 193.45,275.68 C195.02,277.23 199.11,284.39 202.53,291.58 C206.81,300.56 208.73,304.98 212.10,307.06 C215.35,309.07 219.97,308.88 229.37,308.49 C230.04,308.46 230.74,308.43 231.46,308.40 C231.97,308.38 232.47,308.36 232.96,308.34 C241.84,307.98 246.27,307.80 250.31,308.98 C254.56,310.22 258.38,312.95 266.47,318.56 C271.56,322.08 276.80,325.39 278.11,325.92 ZM 295.12 288.54 C284.61,290.12 276.71,290.22 267.58,288.89 C227.25,283.01 194.05,253.26 182.88,213.00 C180.81,205.51 180.53,202.35 180.53,186.50 C180.54,167.80 180.90,165.53 186.07,151.26 C193.09,131.88 207.15,113.74 224.00,102.31 C230.48,97.92 244.67,90.94 250.50,89.28 C288.58,78.44 325.52,87.84 352.16,115.16 C366.45,129.82 375.26,147.10 379.59,168.96 C381.79,180.08 381.09,201.03 378.13,212.23 C367.43,252.80 335.10,282.51 295.12,288.54 ZM 259.09 276.47 C266.08,278.28 271.24,278.91 279.16,278.95 C306.01,279.07 327.82,269.69 346.19,250.12 C363.15,232.04 371.78,208.37 370.66,183.00 C369.87,165.09 364.74,149.29 354.88,134.37 C349.34,126.00 334.31,111.95 325.69,107.10 C277.65,80.06 217.11,101.20 196.69,152.14 C191.65,164.72 190.49,171.56 190.59,188.00 C190.69,204.49 192.51,213.17 198.50,225.82 C210.76,251.70 232.04,269.48 259.09,276.47 ZM 266.29 229.56 C258.71,234.92 251.84,239.49 251.01,239.69 C248.79,240.26 245.00,237.20 245.00,234.85 C245.00,233.72 247.02,226.14 249.50,218.00 C251.98,209.86 253.98,202.36 253.97,201.35 C253.94,200.17 249.01,195.73 240.39,189.14 C232.95,183.45 226.60,178.13 226.30,177.33 C225.99,176.53 226.24,174.78 226.85,173.44 C227.87,171.18 228.50,171.00 235.23,171.00 C239.23,170.99 247.47,170.70 253.55,170.35 L 264.61 169.72 L 266.87 163.11 C275.00,139.35 276.42,135.85 278.28,134.85 C282.75,132.46 284.33,134.78 290.51,152.76 L 296.33 169.71 L 307.41 170.35 C313.51,170.70 321.75,170.99 325.71,171.00 C332.05,171.00 333.07,171.26 334.07,173.13 C334.87,174.63 334.90,175.92 334.17,177.53 C333.40,179.22 314.48,194.82 306.90,200.01 C306.49,200.29 308.37,207.94 311.07,217.01 C313.78,226.08 315.99,234.22 315.99,235.10 C316.00,236.95 312.93,240.00 311.06,240.00 C310.36,240.00 303.69,235.69 296.25,230.41 C288.81,225.14 282.12,220.60 281.39,220.32 C280.65,220.04 273.86,224.20 266.29,229.56 ZM 260.00 219.65 C260.00,221.31 262.06,220.13 271.97,212.79 C275.52,210.16 279.35,208.00 280.47,208.00 C281.60,208.00 286.56,210.89 291.50,214.42 C296.45,217.95 300.65,220.68 300.85,220.48 C301.05,220.29 299.79,215.35 298.05,209.52 C296.32,203.68 295.14,198.13 295.44,197.19 C295.74,196.24 299.18,193.00 303.08,189.98 C304.17,189.14 305.16,188.38 306.06,187.69 C310.85,184.01 313.04,182.34 312.75,181.58 C312.52,180.95 310.54,180.96 306.91,180.99 C306.10,180.99 305.20,181.00 304.22,181.00 C298.67,181.00 293.01,180.57 291.63,180.05 C288.83,178.98 286.53,174.43 283.11,163.14 C281.88,159.10 280.74,155.95 280.57,156.14 C280.40,156.34 278.56,161.23 276.49,167.00 C274.41,172.77 272.09,178.18 271.32,179.00 C270.30,180.10 266.87,180.63 258.40,181.00 L 246.86 181.50 L 255.52 187.91 C260.29,191.43 264.61,195.26 265.14,196.41 C265.84,197.95 265.29,201.09 263.04,208.37 C261.37,213.80 260.00,218.88 260.00,219.65 Z" fill="rgb(78,29,3)"/>
<path d="M 0.00 177.00 L 0.00 0.00 L 266.00 0.00 L 532.00 0.00 L 532.00 177.00 L 532.00 354.00 L 266.00 354.00 L 0.00 354.00 L 0.00 177.00 ZM 289.79 333.92 C292.79,332.23 299.53,327.92 304.76,324.35 L 314.29 317.84 L 331.94 318.55 C356.15,319.52 355.27,320.06 367.00,297.15 L 374.50 282.50 L 388.00 275.69 C410.33,264.42 410.53,264.08 409.59,239.45 L 408.90 221.34 L 416.11 210.42 C424.35,197.92 427.98,190.70 427.99,186.74 C428.00,182.84 425.07,177.06 416.41,163.92 L 408.89 152.50 L 409.57 135.40 C410.33,116.42 409.77,113.07 405.10,108.59 C403.53,107.09 396.00,102.63 388.37,98.68 L 374.50 91.50 L 367.50 77.65 C355.78,54.48 355.16,54.09 332.14,55.84 C315.17,57.13 315.79,57.31 300.68,47.08 C287.84,38.39 283.84,36.61 278.85,37.41 C273.92,38.20 265.63,42.88 255.00,50.90 C247.14,56.82 245.80,57.10 230.45,55.89 C206.18,53.98 204.69,54.82 193.94,76.62 C186.24,92.23 185.45,93.09 174.50,97.88 C171.75,99.09 166.02,102.16 161.78,104.72 C150.73,111.37 150.55,111.88 151.38,134.45 L 152.05 152.50 L 144.95 163.35 C135.48,177.80 133.00,182.64 133.00,186.68 C133.00,190.43 137.31,199.64 142.44,206.81 C144.28,209.39 147.20,213.90 148.91,216.82 L 152.03 222.15 L 151.37 239.84 C150.46,264.01 150.38,263.87 172.71,275.39 L 186.50 282.50 L 194.07 297.23 C205.83,320.09 204.95,319.55 228.74,318.62 C241.04,318.14 246.67,318.28 248.26,319.10 C249.49,319.73 255.11,323.36 260.74,327.17 C277.17,338.27 280.65,339.08 289.79,333.92 ZM 278.11 325.92 C276.80,325.39 271.56,322.08 266.47,318.56 C250.26,307.33 251.22,307.61 231.46,308.40 C210.19,309.26 211.23,309.86 202.53,291.58 C199.11,284.39 195.02,277.23 193.45,275.68 C191.88,274.13 184.94,269.99 178.04,266.48 C159.51,257.06 160.92,259.57 161.24,236.70 L 161.50 217.50 L 153.86 205.50 C143.71,189.55 142.80,187.66 143.90,184.77 C144.39,183.48 148.13,177.26 152.21,170.96 C156.29,164.66 160.22,158.04 160.93,156.26 C161.93,153.78 162.06,148.88 161.51,135.17 L 160.78 117.31 L 165.64 114.33 C168.31,112.69 174.79,109.25 180.04,106.69 C185.29,104.12 191.02,100.55 192.77,98.73 C194.53,96.92 198.84,89.60 202.36,82.47 C205.87,75.34 209.70,68.65 210.86,67.60 C212.84,65.83 214.14,65.75 229.89,66.41 C249.67,67.23 249.51,67.27 263.33,57.66 C274.24,50.07 278.09,48.00 281.28,48.00 C282.60,48.00 289.22,51.74 296.18,56.42 C303.08,61.06 310.58,65.35 312.86,65.96 C315.64,66.71 322.12,66.85 332.51,66.39 C346.88,65.75 348.16,65.84 350.15,67.60 C351.33,68.64 354.95,75.12 358.21,82.00 C361.46,88.88 365.55,96.00 367.31,97.84 C369.06,99.68 375.86,103.89 382.41,107.18 C388.96,110.48 395.63,114.15 397.25,115.34 L 400.18 117.50 L 399.46 135.24 C398.63,155.74 398.52,155.25 407.33,168.47 C410.61,173.40 414.38,179.58 415.69,182.19 L 418.07 186.94 L 416.02 190.95 C414.90,193.16 411.08,199.39 407.53,204.80 C403.99,210.21 400.58,215.96 399.95,217.57 C399.15,219.61 399.01,225.80 399.48,238.00 C400.00,251.78 399.86,255.86 398.82,257.21 C398.09,258.15 391.42,262.11 384.00,266.02 C376.58,269.93 369.21,274.34 367.63,275.81 C366.05,277.29 361.93,284.35 358.46,291.50 C349.26,310.49 351.40,309.22 330.15,308.40 C309.82,307.61 311.38,307.19 296.50,317.49 C288.55,322.99 281.68,327.12 280.80,326.94 C280.63,326.90 279.42,326.44 278.11,325.92 ZM 295.12 288.54 C335.10,282.51 367.43,252.80 378.13,212.23 C381.09,201.03 381.79,180.08 379.59,168.96 C375.26,147.10 366.45,129.82 352.16,115.16 C325.52,87.84 288.58,78.44 250.50,89.28 C244.67,90.94 230.48,97.92 224.00,102.31 C207.15,113.74 193.09,131.88 186.07,151.26 C180.90,165.53 180.54,167.80 180.53,186.50 C180.53,202.35 180.81,205.51 182.88,213.00 C194.05,253.26 227.25,283.01 267.58,288.89 C276.71,290.22 284.61,290.12 295.12,288.54 ZM 259.09 276.47 C232.04,269.48 210.76,251.70 198.50,225.82 C192.51,213.17 190.69,204.49 190.59,188.00 C190.49,171.56 191.65,164.72 196.69,152.14 C217.11,101.20 277.65,80.06 325.69,107.10 C334.31,111.95 349.34,126.00 354.88,134.37 C364.74,149.29 369.87,165.09 370.66,183.00 C371.78,208.37 363.15,232.04 346.19,250.12 C327.82,269.69 306.01,279.07 279.16,278.95 C271.24,278.91 266.08,278.28 259.09,276.47 ZM 266.29 229.56 C273.86,224.20 280.65,220.04 281.39,220.32 C282.12,220.60 288.81,225.14 296.25,230.41 C303.69,235.69 310.36,240.00 311.06,240.00 C312.93,240.00 316.00,236.95 315.99,235.10 C315.99,234.22 313.78,226.08 311.07,217.01 C308.37,207.94 306.49,200.29 306.90,200.01 C314.48,194.82 333.40,179.22 334.17,177.53 C334.90,175.92 334.87,174.63 334.07,173.13 C333.07,171.26 332.05,171.00 325.71,171.00 C321.75,170.99 313.51,170.70 307.41,170.35 L 296.33 169.71 L 290.51 152.76 C284.33,134.78 282.75,132.46 278.28,134.85 C276.42,135.85 275.00,139.35 266.87,163.11 L 264.61 169.72 L 253.55 170.35 C247.47,170.70 239.23,170.99 235.23,171.00 C228.50,171.00 227.87,171.18 226.85,173.44 C226.24,174.78 225.99,176.53 226.30,177.33 C226.60,178.13 232.95,183.45 240.39,189.14 C249.01,195.73 253.94,200.17 253.97,201.35 C253.98,202.36 251.98,209.86 249.50,218.00 C247.02,226.14 245.00,233.72 245.00,234.85 C245.00,237.20 248.79,240.26 251.01,239.69 C251.84,239.49 258.71,234.92 266.29,229.56 ZM 260.00 219.65 C260.00,218.88 261.37,213.80 263.04,208.37 C265.29,201.09 265.84,197.95 265.14,196.41 C264.61,195.26 260.29,191.43 255.52,187.91 L 246.86 181.50 L 258.40 181.00 C266.87,180.63 270.30,180.10 271.32,179.00 C272.09,178.18 274.41,172.77 276.49,167.00 C278.56,161.23 280.40,156.34 280.57,156.14 C280.74,155.95 281.88,159.10 283.11,163.14 C286.53,174.43 288.83,178.98 291.63,180.05 C293.01,180.57 298.67,181.00 304.22,181.00 C315.76,181.00 315.87,180.09 303.08,189.98 C299.18,193.00 295.74,196.24 295.44,197.19 C295.14,198.13 296.32,203.68 298.05,209.52 C299.79,215.35 301.05,220.29 300.85,220.48 C300.65,220.68 296.45,217.95 291.50,214.42 C286.56,210.89 281.60,208.00 280.47,208.00 C279.35,208.00 275.52,210.16 271.97,212.79 C262.06,220.13 260.00,221.31 260.00,219.65 Z" fill="rgb(253,248,237)"/>
</g>
</svg>