<svg xmlns="http://www.w3.org/2000/svg" width="272" height="224" viewBox="0 0 272 224">
<g>
<path d="M 185.43 196.43 C183.44,198.42 183.41,198.41 180.92,195.92 C179.00,194.00 178.87,192.93 179.22,182.17 L 179.60 170.50 L 184.82 161.50 C193.33,146.82 194.29,142.78 194.77,119.67 C195.18,100.00 195.17,99.84 193.16,100.92 C190.16,102.52 183.55,102.23 179.53,100.31 C177.59,99.39 176.00,98.26 176.00,97.81 C176.00,96.39 174.07,96.93 170.00,99.50 C163.58,103.55 156.00,102.61 156.00,97.77 C156.00,95.81 156.24,95.68 162.74,94.01 C169.12,92.38 170.00,89.91 170.00,73.60 C170.00,58.74 169.23,55.75 164.93,53.97 C161.47,52.54 155.50,54.20 153.99,57.01 C153.45,58.03 153.00,62.75 153.00,67.50 C153.00,77.20 152.01,80.00 148.57,80.00 C145.39,80.00 145.00,78.53 145.00,66.57 C145.00,51.49 143.25,47.96 135.82,48.03 C129.12,48.10 127.00,52.06 127.00,64.49 C127.00,73.28 125.61,76.55 122.39,75.32 C119.84,74.34 119.00,70.42 119.00,59.55 C119.00,46.88 117.84,44.73 111.00,44.73 C107.50,44.73 106.17,45.26 104.32,47.42 C102.27,49.80 102.00,51.15 102.00,58.98 C102.00,68.26 100.67,71.58 97.44,70.34 C94.91,69.37 94.00,66.42 94.02,59.32 C94.05,50.44 95.28,45.39 98.17,42.31 C104.95,35.05 117.00,34.82 123.34,41.83 C125.17,43.84 125.21,43.84 128.34,41.93 C134.37,38.26 144.51,40.02 148.82,45.50 C150.86,48.09 151.17,48.17 154.15,46.94 C161.07,44.07 169.88,45.97 174.09,51.23 C175.62,53.15 175.79,53.16 179.01,51.49 C183.49,49.18 191.07,49.27 195.21,51.69 C197.02,52.75 199.50,55.39 200.73,57.56 C202.93,61.44 202.97,62.09 202.98,97.68 C203.00,136.93 202.49,142.13 197.40,154.24 C195.96,157.69 193.03,163.50 190.89,167.17 C187.04,173.78 187.00,173.96 187.00,184.35 C187.00,192.57 186.66,195.20 185.43,196.43 ZM 111.80 181.50 C112.18,192.10 112.01,193.77 110.36,195.80 C108.68,197.87 108.31,197.95 106.50,196.63 C104.74,195.34 104.44,193.68 104.00,182.69 L 103.50 170.20 L 90.64 151.13 C83.57,140.64 77.18,130.36 76.44,128.28 C75.69,126.20 75.07,121.22 75.04,117.20 C75.01,111.05 75.65,108.15 79.15,98.70 C85.30,82.06 89.94,77.00 99.00,77.01 C102.78,77.02 140.94,83.93 146.16,85.56 C148.74,86.36 151.32,91.06 151.19,94.69 C150.95,100.93 145.33,107.97 138.21,110.91 L 135.03 112.23 L 138.94 116.67 C141.09,119.11 143.56,123.19 144.42,125.73 C146.42,131.58 146.49,139.35 144.56,140.95 C142.21,142.90 139.18,140.55 138.48,136.24 C137.14,128.08 136.76,126.97 133.98,123.12 C130.60,118.47 124.46,114.62 117.72,112.94 C114.89,112.24 112.51,110.95 111.90,109.81 C110.00,106.25 112.27,105.26 123.28,104.81 C130.43,104.52 134.49,103.87 136.79,102.65 C140.52,100.67 144.44,95.04 143.05,93.65 C141.85,92.45 104.66,85.00 99.87,85.00 C94.12,85.00 91.58,87.99 87.13,100.00 C84.99,105.78 82.92,111.98 82.53,113.79 C81.10,120.47 83.70,126.50 96.00,144.94 C106.34,160.44 109.70,165.25 110.93,170.55 C111.59,173.45 111.62,176.49 111.80,181.50 ZM 180.64 91.36 C184.13,94.86 189.16,94.93 192.55,91.55 C194.91,89.18 195.00,88.60 194.97,75.80 C194.93,61.56 194.44,59.88 189.78,58.10 C186.57,56.89 183.16,57.68 180.25,60.31 C178.13,62.23 178.00,63.13 178.00,75.54 C178.00,88.46 178.05,88.78 180.64,91.36 Z" fill="rgb(81,29,1)"/>
</g>
</svg>