<svg xmlns="http://www.w3.org/2000/svg" width="660" height="374" viewBox="0 0 660 374">
<g>
<path d="M 380.44 323.48 C374.18,325.38 361.75,326.17 356.34,325.02 C346.41,322.91 338.99,316.43 339.02,309.91 C339.02,308.03 339.42,305.89 339.89,305.15 C340.44,304.28 339.86,302.21 338.27,299.36 C335.37,294.17 335.61,291.43 339.93,280.50 C341.45,276.65 342.97,270.80 343.31,267.50 C343.65,264.20 345.22,256.49 346.82,250.36 L 349.72 239.22 L 321.50 238.36 L 306.92 232.68 C298.91,229.56 291.43,227.00 290.31,227.00 C286.70,227.00 282.16,235.57 280.50,245.50 C279.42,251.99 276.22,260.58 273.00,265.66 C268.35,272.99 268.81,274.75 277.35,282.40 C286.31,290.42 289.86,292.00 298.89,292.00 C304.93,292.00 306.26,292.34 308.95,294.61 C316.73,301.16 317.53,311.98 310.58,316.54 C307.72,318.41 289.85,320.89 278.65,320.96 C270.99,321.01 265.77,319.10 263.31,315.35 C262.47,314.06 259.01,311.36 255.64,309.34 C240.97,300.58 223.36,284.16 221.02,277.05 C219.87,273.57 219.85,271.37 220.90,263.97 C221.85,257.26 221.88,253.76 221.05,249.78 C219.42,241.98 219.07,241.67 214.44,243.86 C212.27,244.89 208.27,246.02 205.54,246.37 C200.94,246.97 200.00,247.62 192.54,255.35 C185.86,262.27 183.68,263.91 179.63,265.00 C174.21,266.48 169.64,269.85 167.52,273.96 C165.92,277.05 162.96,289.12 163.56,290.09 C163.78,290.45 166.04,290.97 168.59,291.26 C178.07,292.33 185.55,300.69 185.42,310.09 C185.28,320.44 178.22,324.27 159.00,324.41 C141.37,324.55 137.85,322.02 133.84,306.35 C132.77,302.17 130.57,296.27 128.95,293.24 C125.71,287.17 125.47,284.65 127.09,273.73 C127.99,267.70 127.92,265.45 126.67,261.27 C125.84,258.47 125.42,255.91 125.75,255.59 C126.55,254.78 125.28,254.84 116.69,256.04 C102.21,258.05 86.53,252.36 82.10,243.49 C80.95,241.18 80.00,238.85 80.00,238.33 C80.00,237.81 78.20,236.59 76.00,235.62 C70.43,233.16 61.92,225.11 58.80,219.34 C54.16,210.77 52.67,203.69 53.27,193.03 C54.39,173.18 61.43,162.39 80.94,150.60 C98.37,140.06 114.67,136.32 153.00,134.05 C175.35,132.73 183.67,131.22 202.34,125.07 C210.68,122.33 221.26,119.39 225.86,118.54 C235.68,116.73 262.00,116.51 284.00,118.04 C306.72,119.63 329.93,119.43 343.50,117.53 C376.30,112.96 397.32,109.36 406.50,106.76 C411.84,105.24 413.34,104.15 417.41,98.82 C424.77,89.19 435.04,85.60 453.59,86.19 C460.95,86.42 462.09,86.17 470.00,82.51 C477.65,78.98 479.40,78.56 487.50,78.35 C492.45,78.21 500.84,77.79 506.14,77.41 C514.77,76.79 516.25,76.94 520.17,78.84 C522.57,80.00 525.34,82.30 526.31,83.95 C527.48,85.93 529.35,87.29 531.83,87.95 C538.01,89.62 544.01,97.21 545.53,105.28 C545.91,107.33 546.53,109.00 546.91,109.00 C547.30,109.00 549.61,106.32 552.05,103.04 C554.50,99.76 556.80,97.06 557.17,97.04 C558.24,96.98 559.31,109.74 558.68,115.09 C558.16,119.48 558.45,120.50 561.58,125.24 C563.50,128.13 565.31,131.62 565.60,133.00 C566.61,137.68 567.50,138.91 578.25,150.46 C588.24,161.20 589.00,162.31 589.00,166.06 C589.00,170.95 586.99,175.13 583.83,176.82 C582.55,177.51 580.78,179.32 579.90,180.85 C577.81,184.50 572.16,187.08 564.84,187.75 C559.07,188.27 558.98,188.33 560.87,190.10 C563.73,192.75 564.38,197.17 562.56,201.52 C561.70,203.57 561.00,207.00 561.00,209.15 C561.00,214.71 558.66,219.61 555.13,221.43 C553.36,222.35 549.48,223.02 545.80,223.04 C539.79,223.09 539.27,223.29 534.60,227.48 L 529.71 231.86 L 530.36 237.43 C530.72,240.49 530.72,243.00 530.36,243.00 C529.28,243.00 520.71,235.98 517.78,232.70 L 515.07 229.66 L 506.51 237.87 C501.80,242.39 497.52,245.82 496.99,245.49 C496.46,245.16 494.26,246.74 492.12,249.00 L 488.21 253.10 L 489.52 262.43 C490.63,270.42 491.40,272.69 494.88,278.20 C497.12,281.74 499.62,286.23 500.43,288.17 C501.79,291.42 502.32,291.76 507.08,292.32 C509.92,292.66 513.36,293.66 514.70,294.54 C517.55,296.40 523.00,307.29 523.00,311.10 C523.00,315.23 518.94,320.33 514.46,321.83 C508.69,323.77 484.63,323.00 480.37,320.74 C476.01,318.42 472.37,313.80 471.58,309.57 C471.10,307.00 470.09,305.58 467.97,304.48 C463.25,302.04 458.35,297.27 456.96,293.75 C456.25,291.96 452.46,287.12 448.54,283.00 C444.58,278.84 439.03,271.43 436.05,266.36 L 430.69 257.22 L 424.60 256.54 C417.16,255.71 411.63,253.37 406.57,248.93 L 402.75 245.57 L 400.47 248.44 C399.21,250.01 396.25,254.72 393.90,258.90 C391.54,263.08 386.83,270.55 383.44,275.50 C376.62,285.43 374.00,290.13 374.00,292.40 C374.00,294.58 378.52,298.77 382.79,300.56 C390.41,303.74 393.58,309.77 390.96,316.09 C389.44,319.78 386.99,321.49 380.44,323.48 ZM 356.00 315.46 C362.54,317.61 379.04,316.02 382.41,312.92 C383.94,311.51 380.99,309.03 376.39,307.87 C373.72,307.20 371.84,306.08 371.48,304.95 C371.11,303.78 369.74,303.01 367.70,302.81 L 364.50 302.50 L 364.67 296.26 C364.88,288.66 367.70,282.06 375.41,271.13 C381.90,261.92 391.00,246.39 391.00,244.52 C391.00,242.69 401.19,234.14 408.83,229.55 C414.22,226.32 418.84,221.61 421.88,216.23 C422.46,215.22 423.38,215.24 426.55,216.34 C429.86,217.50 430.44,218.11 430.15,220.10 C429.16,226.75 422.34,235.71 415.66,239.16 C411.93,241.08 411.87,241.20 413.58,243.09 C415.72,245.45 425.22,248.38 427.94,247.52 C432.05,246.21 439.03,251.99 443.03,260.00 C446.66,267.28 451.00,273.17 456.65,278.50 C459.57,281.25 463.01,285.52 464.29,288.00 C465.85,290.99 468.54,293.82 472.33,296.45 C477.22,299.83 478.34,301.22 480.13,306.13 C481.28,309.29 482.96,312.19 483.86,312.59 C484.76,312.98 491.37,313.51 498.54,313.76 C509.74,314.15 511.76,313.99 512.93,312.59 C514.08,311.20 514.01,310.34 512.46,306.92 C510.31,302.14 509.24,301.49 502.08,300.58 C494.87,299.66 493.00,298.54 493.00,295.15 C493.00,293.62 491.19,289.47 488.97,285.93 C483.32,276.92 481.92,273.49 480.87,266.09 C480.37,262.53 479.76,259.43 479.53,259.20 C479.30,258.97 476.95,259.24 474.30,259.82 C459.81,262.97 457.63,262.00 464.14,255.29 C466.68,252.65 469.27,249.52 469.88,248.32 C473.11,241.99 468.65,229.61 460.40,221.97 C457.70,219.48 451.67,214.78 447.00,211.51 C436.93,204.48 427.71,195.25 424.52,189.00 C418.71,177.61 416.03,162.02 417.97,150.95 C419.60,141.66 419.93,140.85 421.83,141.41 C422.75,141.68 424.69,142.19 426.14,142.53 L 428.78 143.16 L 428.85 134.82 C428.92,126.23 430.30,120.80 434.15,113.94 C436.66,109.48 442.32,104.62 446.10,103.68 C448.47,103.10 448.81,103.41 449.95,107.23 C450.99,110.71 450.98,111.51 449.85,111.87 C447.02,112.78 442.26,118.99 441.03,123.38 C440.24,126.22 439.92,131.28 440.20,136.73 C440.94,151.38 444.85,156.64 468.91,175.37 C484.91,187.82 495.98,198.86 500.18,206.58 C502.79,211.39 505.27,223.82 504.25,227.00 C503.12,230.52 509.13,222.03 511.15,217.25 C512.37,214.36 513.70,212.00 514.10,212.00 C515.03,212.00 520.13,218.65 521.91,222.18 L 523.26 224.86 L 527.06 222.34 C532.51,218.74 533.36,215.64 530.85,208.50 C528.70,202.36 527.49,200.86 520.45,195.56 C510.30,187.92 508.50,184.67 508.50,174.00 C508.50,166.54 508.89,164.64 511.72,158.50 L 514.94 151.50 L 512.60 149.50 C507.90,145.49 506.75,139.87 509.37,133.72 C512.12,127.28 517.75,124.14 530.50,121.97 C534.35,121.31 538.55,120.11 539.83,119.31 C542.02,117.94 542.06,117.73 540.52,116.03 C539.62,115.03 538.03,111.40 536.99,107.98 C534.76,100.60 532.01,97.35 526.84,95.96 C524.70,95.38 522.27,93.81 521.27,92.37 C516.65,85.69 516.55,85.65 506.61,86.49 C501.60,86.91 493.67,87.31 489.00,87.38 C481.39,87.49 479.56,87.92 471.50,91.50 C462.57,95.47 462.41,95.50 450.00,95.51 C434.84,95.52 430.49,97.07 424.43,104.62 C422.27,107.30 419.60,110.16 418.50,110.97 C408.63,118.24 403.95,125.72 401.60,138.00 C397.73,158.28 390.62,168.50 379.51,169.75 L 375.00 170.26 L 375.02 166.88 C375.03,162.87 375.60,161.96 379.28,160.06 C383.27,158.00 385.77,153.38 388.02,143.84 C389.11,139.25 390.46,133.55 391.02,131.16 C391.58,128.77 392.89,125.06 393.93,122.91 C394.97,120.76 395.52,119.00 395.14,119.00 C394.77,119.00 382.80,120.82 368.54,123.05 C337.31,127.93 323.33,128.98 303.50,127.91 C295.25,127.47 276.80,126.80 262.50,126.42 C232.03,125.63 227.90,126.16 203.37,134.10 C185.39,139.93 177.31,141.62 163.50,142.47 C135.43,144.20 123.66,145.34 115.19,147.15 C90.91,152.33 71.81,164.26 65.44,178.21 C62.84,183.90 62.56,185.55 62.53,195.50 C62.50,205.48 62.75,207.01 65.21,212.00 C68.75,219.19 73.47,223.91 81.21,228.00 C88.29,231.75 88.96,232.45 88.98,236.06 C89.03,243.52 103.51,249.19 116.65,246.90 C120.14,246.29 123.00,245.44 123.00,245.00 C123.00,243.55 112.26,234.35 108.49,232.56 C106.45,231.60 101.58,230.36 97.66,229.82 C85.79,228.17 79.81,224.62 72.12,214.65 C64.50,204.77 64.25,190.42 71.49,177.50 C78.02,165.84 88.83,158.50 107.79,152.85 C113.72,151.09 118.90,150.77 152.50,150.07 C173.40,149.63 190.63,149.38 190.80,149.52 C190.96,149.65 189.91,151.51 188.45,153.63 C186.99,155.76 184.03,161.30 181.88,165.94 C179.72,170.58 174.60,179.61 170.49,186.02 C165.63,193.59 161.57,201.48 158.88,208.58 C156.61,214.59 153.62,222.43 152.26,226.00 C150.67,230.15 149.67,235.03 149.49,239.50 L 149.22 246.50 L 143.05 249.60 C138.21,252.05 136.09,253.11 135.43,254.76 C134.91,256.04 135.28,257.67 135.93,260.56 L 135.93 260.58 C136.94,265.10 136.95,268.17 135.96,275.90 L 134.73 285.56 L 137.85 291.08 C139.56,294.12 141.70,299.85 142.60,303.83 C144.80,313.60 146.11,315.02 153.52,315.69 C160.62,316.33 173.94,314.47 175.85,312.57 C179.20,309.24 172.96,300.00 167.37,300.00 C166.00,300.00 162.87,300.51 160.40,301.13 C157.94,301.75 155.68,302.01 155.37,301.71 C152.15,298.48 154.88,278.67 159.79,269.65 C163.21,263.35 167.85,259.61 176.18,256.43 C181.80,254.28 183.49,253.06 186.37,249.04 C191.28,242.21 195.59,239.30 203.49,237.47 C212.49,235.38 213.60,234.71 216.08,229.84 C223.84,214.64 239.13,203.53 256.47,200.51 C261.58,199.62 263.40,198.91 263.15,197.89 C262.95,197.13 262.43,189.30 261.99,180.50 C261.55,171.70 260.93,163.82 260.62,163.00 C260.05,161.48 264.13,156.00 265.84,156.00 C267.05,156.00 269.35,159.60 270.93,164.00 C271.62,165.93 272.52,173.41 272.92,180.64 C273.82,196.70 275.94,201.89 285.34,211.13 C291.19,216.87 292.30,217.47 307.50,223.21 C321.63,228.54 324.56,229.30 332.63,229.75 C337.65,230.03 344.67,229.95 348.24,229.57 L 354.72 228.87 L 355.30 221.92 C355.96,214.08 358.87,207.84 362.67,206.10 L 362.81 206.04 C364.29,205.37 365.07,205.01 365.65,205.22 C366.31,205.46 366.70,206.44 367.57,208.52 C368.64,211.08 368.76,212.57 368.01,213.97 C367.43,215.07 367.07,221.38 367.19,228.70 C367.38,239.75 367.09,242.42 365.12,248.25 L 362.84 255.00 L 359.07 254.39 L 359.00 254.38 C357.45,254.14 356.45,253.98 355.73,254.35 C354.42,255.05 354.06,257.54 353.01,264.59 C352.36,268.94 350.72,275.88 349.35,280.00 C345.08,292.90 344.93,293.93 347.09,296.09 C348.14,297.14 349.50,298.00 350.11,298.00 C351.45,298.00 350.82,303.12 348.91,307.73 C347.70,310.66 347.76,311.11 349.54,312.48 C350.62,313.30 353.52,314.65 356.00,315.46 ZM 130.01 238.68 C133.99,243.15 134.79,243.62 137.03,242.84 C139.25,242.07 139.70,241.08 140.71,234.70 C141.35,230.71 144.07,221.83 146.77,214.97 C149.48,208.11 152.43,200.48 153.34,198.00 C154.25,195.52 158.18,188.55 162.07,182.50 C168.61,172.35 175.00,160.94 175.00,159.42 C175.00,159.07 161.61,159.00 145.25,159.27 C112.75,159.81 111.28,160.02 97.85,166.24 C83.57,172.85 75.82,183.03 75.36,195.79 C75.11,202.69 75.63,204.11 80.87,210.82 C85.97,217.35 90.34,219.76 99.00,220.83 C103.12,221.34 108.07,222.42 110.00,223.24 C115.18,225.45 124.89,232.94 130.01,238.68 ZM 268.53 308.03 C272.28,311.87 272.62,312.00 278.95,311.96 C289.04,311.91 305.05,309.54 306.02,307.96 C306.95,306.46 304.30,301.08 302.53,300.88 C301.97,300.81 298.93,300.86 295.79,300.97 C291.49,301.13 288.76,300.57 284.79,298.71 C277.78,295.44 265.49,284.88 262.99,279.98 C259.97,274.06 260.45,270.24 265.40,260.85 C268.44,255.07 270.46,249.43 271.95,242.54 C273.94,233.33 276.12,228.10 279.77,223.80 C281.07,222.27 280.55,221.47 274.48,215.67 L 267.75 209.23 L 261.37 210.56 C252.05,212.51 241.97,218.24 232.96,226.72 L 225.14 234.07 L 227.10 238.49 C230.47,246.11 231.32,253.42 230.03,263.70 C229.09,271.16 229.12,273.47 230.18,275.68 C231.97,279.39 251.07,296.09 258.58,300.49 C261.92,302.46 266.40,305.85 268.53,308.03 ZM 543.20 209.16 C545.83,213.22 546.85,214.04 548.95,213.80 C551.29,213.52 551.56,212.99 552.18,207.31 C552.56,203.91 553.31,200.28 553.86,199.26 C555.63,195.96 553.79,194.58 549.63,196.09 C544.98,197.77 541.20,196.51 538.85,192.49 C537.18,189.63 537.18,189.31 538.90,185.47 C540.66,181.55 540.86,181.43 547.87,180.23 C551.81,179.55 557.39,178.95 560.27,178.88 C569.14,178.68 571.32,177.86 573.24,174.00 C574.22,172.04 575.98,170.26 577.24,169.96 C581.27,168.98 580.43,166.21 574.01,159.35 C562.18,146.71 557.27,140.11 556.61,135.98 C556.00,132.15 550.90,125.00 548.78,125.00 C548.22,125.00 546.24,126.34 544.38,127.97 C541.27,130.70 538.02,131.96 526.29,134.97 C523.98,135.57 521.31,136.83 520.36,137.78 C518.71,139.41 518.84,139.52 522.81,139.81 L 527.00 140.11 L 526.98 144.81 C526.97,147.39 525.80,152.65 524.38,156.50 C517.33,175.59 517.60,177.61 528.52,187.42 C535.30,193.51 540.00,199.92 540.00,203.07 C540.00,203.70 541.44,206.44 543.20,209.16 ZM 481.71 239.05 L 482.30 246.09 L 485.12 243.38 C488.36,240.29 494.01,226.41 493.98,221.66 C493.92,213.02 484.47,202.00 463.51,186.11 C443.89,171.24 437.23,164.44 432.28,154.25 L 428.28 145.99 L 427.71 151.48 C427.01,158.29 428.37,168.32 430.89,174.96 C435.31,186.59 440.71,192.72 456.00,203.50 C468.27,212.15 473.36,217.25 477.42,224.97 C480.28,230.42 481.25,233.61 481.71,239.05 Z" fill="rgb(77,29,4)"/>
</g>
</svg>