<?xml version="1.0" standalone="no"?>
<!DOCTYPE svg PUBLIC "-//W3C//DTD SVG 20010904//EN"
 "http://www.w3.org/TR/2001/REC-SVG-20010904/DTD/svg10.dtd">
<svg version="1.0" xmlns="http://www.w3.org/2000/svg"
 width="336.000000pt" height="220.000000pt" viewBox="0 0 336.000000 220.000000"
 preserveAspectRatio="xMidYMid meet">

<g transform="translate(0.000000,220.000000) scale(0.100000,-0.100000)"
fill="#000000" stroke="none">
<path d="M1009 2037 c-104 -30 -200 -110 -248 -209 -41 -84 -52 -148 -40 -234
15 -107 59 -182 157 -267 l32 -27 0 -414 c0 -404 0 -414 21 -440 46 -59 5 -56
896 -56 794 0 819 1 850 20 65 39 63 22 63 625 0 603 2 586 -63 625 -31 19
-54 20 -594 20 l-563 0 -6 28 c-16 73 -39 126 -77 177 -44 60 -135 127 -195
146 -58 17 -182 20 -233 6z m211 -79 c167 -51 263 -254 200 -422 -82 -217
-365 -280 -532 -119 -51 50 -91 142 -96 223 -13 221 208 384 428 318z m1421
-367 l24 -19 3 -530 c2 -511 2 -530 -17 -553 l-19 -24 -801 -3 -802 -2 -24 24
-25 25 0 381 0 382 33 -9 c17 -4 73 -8 122 -7 76 0 99 4 145 27 30 14 73 41
94 59 50 41 110 133 125 195 7 26 15 54 17 61 3 9 122 12 553 12 525 0 550 -1
572 -19z"/>
<path d="M1025 1855 c-20 -19 -25 -34 -25 -72 0 -40 -4 -50 -22 -58 -22 -9
-23 -16 -26 -131 l-3 -121 26 -11 c15 -7 75 -12 145 -12 159 0 160 1 160 143
0 88 -3 106 -18 120 -10 10 -24 17 -30 17 -8 0 -12 17 -12 46 0 37 -5 51 -29
75 -26 25 -37 29 -86 29 -46 0 -60 -4 -80 -25z m123 -37 c7 -7 12 -29 12 -50
l0 -38 -55 0 -55 0 0 34 c0 19 7 42 16 50 18 19 65 21 82 4z m72 -223 l0 -85
-110 0 -110 0 0 78 c0 43 3 82 7 85 3 4 53 7 110 7 l103 0 0 -85z"/>
<path d="M2239 1454 c-22 -23 -24 -34 -24 -121 0 -91 1 -96 28 -119 26 -22 36
-24 136 -24 104 0 109 1 135 26 24 25 26 32 26 121 0 89 -1 95 -26 118 -25 23
-34 25 -139 25 -107 0 -112 -1 -136 -26z m236 -119 l0 -90 -94 -3 c-69 -2 -97
1 -103 10 -10 16 -11 162 -1 172 4 4 50 5 103 4 l95 -3 0 -90z"/>
<path d="M1122 708 c-18 -18 -15 -36 7 -48 28 -14 184 -13 199 2 17 17 15 45
-4 52 -29 11 -189 7 -202 -6z"/>
<path d="M1457 714 c-4 -4 -7 -18 -7 -30 0 -30 23 -36 115 -32 l70 3 0 30 0
30 -85 3 c-47 1 -89 0 -93 -4z"/>
<path d="M1722 708 c-7 -7 -12 -18 -12 -25 0 -27 41 -33 211 -31 148 3 173 5
182 20 8 12 7 21 -2 32 -11 14 -41 16 -190 16 -124 0 -181 -4 -189 -12z"/>
<path d="M2192 708 c-7 -7 -12 -18 -12 -25 0 -26 41 -34 176 -31 115 3 139 6
147 20 8 12 7 21 -2 32 -11 13 -38 16 -155 16 -97 0 -146 -4 -154 -12z"/>
</g>
</svg>
