<svg xmlns="http://www.w3.org/2000/svg" width="336" height="220" viewBox="0 0 336 220">
<g>
<path d="M 266.61 180.09 C262.71,181.86 258.44,181.96 183.00,181.96 C107.75,181.96 103.28,181.86 99.42,180.10 C97.18,179.08 94.37,177.01 93.17,175.49 C91.02,172.76 91.00,172.31 91.00,131.33 L 91.00 89.93 L 84.70 84.04 C80.86,80.45 77.25,75.87 75.45,72.32 C72.71,66.92 72.50,65.70 72.50,55.48 C72.50,45.07 72.68,44.11 75.77,37.83 C83.79,21.52 101.68,12.68 119.96,15.99 C128.23,17.49 133.08,20.02 139.67,26.25 C145.33,31.60 149.31,38.57 151.29,46.59 L 152.50 51.50 L 209.50 52.00 C254.38,52.39 267.00,52.78 268.84,53.83 C270.12,54.56 272.02,57.04 273.06,59.33 C274.84,63.25 274.96,66.66 274.98,116.43 C275.00,168.53 274.97,169.44 272.86,173.80 C271.26,177.09 269.66,178.70 266.61,180.09 ZM 102.50 172.81 C103.94,173.62 126.48,173.95 183.44,173.97 L 262.37 174.00 L 267.00 169.65 L 267.00 116.65 C267.00,68.74 266.84,63.48 265.35,61.83 C263.78,60.10 260.68,60.00 208.01,60.00 L 152.33 60.00 L 150.71 65.82 C149.82,69.01 147.25,74.39 145.00,77.77 C135.90,91.39 119.76,97.92 103.25,94.66 L 99.00 93.82 L 99.02 131.66 C99.02,152.47 99.36,169.99 99.77,170.59 C100.17,171.18 101.40,172.18 102.50,172.81 ZM 106.70 86.95 C109.34,87.38 112.18,87.61 113.00,87.46 C113.82,87.30 116.28,86.87 118.45,86.50 C127.34,85.00 136.16,78.30 140.83,69.50 C143.13,65.16 143.48,63.31 143.49,55.50 C143.50,47.68 143.14,45.76 140.73,40.86 C133.08,25.29 114.69,18.85 98.23,25.98 C91.40,28.94 83.77,37.17 81.48,44.05 C79.49,50.04 79.30,59.34 81.05,64.68 C84.77,75.99 95.19,85.04 106.70,86.95 ZM 126.43 73.43 C125.16,74.70 122.32,75.00 111.58,75.00 C111.15,75.00 110.73,75.00 110.32,75.00 C102.37,75.01 98.55,75.01 96.70,73.10 C94.99,71.32 94.99,67.89 95.00,61.28 C95.00,60.91 95.00,60.54 95.00,60.15 C95.00,49.18 95.05,48.93 97.50,47.82 C99.67,46.83 100.00,46.03 100.00,41.84 C100.00,34.18 104.28,31.21 113.77,32.28 C119.77,32.95 122.00,35.56 122.00,41.89 C122.00,46.16 122.26,46.66 125.00,47.69 L 128.00 48.83 L 128.00 60.34 C128.00,69.48 127.68,72.18 126.43,73.43 ZM 251.77 98.68 C249.27,101.19 248.30,101.43 239.77,101.76 C232.29,102.05 229.83,101.77 227.01,100.31 C221.95,97.68 220.88,94.88 221.21,85.16 C221.48,77.44 221.71,76.65 224.31,74.41 C226.91,72.17 227.91,72.00 238.38,72.00 C249.20,72.00 249.75,72.10 252.08,74.58 C254.29,76.93 254.50,77.99 254.50,86.56 C254.50,95.45 254.36,96.10 251.77,98.68 ZM 228.44 94.70 C228.85,95.76 231.09,96.01 238.23,95.79 L 247.50 95.50 L 248.28 87.64 C249.32,77.08 249.09,76.85 237.60,77.21 L 228.50 77.50 L 228.21 85.41 C228.04,89.76 228.15,93.94 228.44,94.70 ZM 101.00 53.00 L 101.00 69.00 L 122.00 69.00 L 122.00 53.00 ZM 210.50 148.50 L 210.50 154.50 L 191.89 154.77 C175.81,155.01 173.10,154.83 171.95,153.44 C170.98,152.27 170.90,151.38 171.67,150.17 C172.59,148.71 175.07,148.50 191.61,148.50 ZM 250.50 148.50 L 250.50 154.50 L 235.39 154.78 C222.51,155.01 220.09,154.81 218.95,153.44 C217.98,152.27 217.90,151.38 218.67,150.17 C219.57,148.73 221.83,148.50 235.11,148.50 ZM 134.07 153.42 C133.03,154.66 130.68,155.00 123.00,155.00 C115.32,155.00 112.97,154.66 111.93,153.42 C110.98,152.27 110.90,151.38 111.67,150.17 C112.54,148.79 114.49,148.50 123.00,148.50 C131.51,148.50 133.46,148.79 134.33,150.17 C135.10,151.38 135.02,152.27 134.07,153.42 ZM 163.96 153.55 C163.10,154.59 160.59,155.00 155.13,154.98 C146.43,154.97 144.69,154.25 145.16,150.89 C145.49,148.59 145.86,148.49 154.67,148.21 C163.22,147.95 163.89,148.07 164.50,150.01 C164.87,151.16 164.62,152.75 163.96,153.55 ZM 106.00 42.98 L 106.00 47.00 L 116.00 47.00 L 116.00 42.62 C116.00,38.65 115.74,38.18 113.30,37.72 C111.82,37.43 109.57,37.59 108.30,38.08 C106.43,38.79 106.00,39.70 106.00,42.98 Z" fill="rgb(81,30,2)"/>
<path d="M 0.00 110.00 L 0.00 0.00 L 168.00 0.00 L 336.00 0.00 L 336.00 110.00 L 336.00 220.00 L 168.00 220.00 L 0.00 220.00 L 0.00 110.00 ZM 266.61 180.09 C269.66,178.70 271.26,177.09 272.86,173.80 C274.97,169.44 275.00,168.53 274.98,116.43 C274.96,66.66 274.84,63.25 273.06,59.33 C272.02,57.04 270.12,54.56 268.84,53.83 C267.00,52.78 254.38,52.39 209.50,52.00 L 152.50 51.50 L 151.29 46.59 C149.31,38.57 145.33,31.60 139.67,26.25 C133.08,20.02 128.23,17.49 119.96,15.99 C101.68,12.68 83.79,21.52 75.77,37.83 C72.68,44.11 72.50,45.07 72.50,55.48 C72.50,65.70 72.71,66.92 75.45,72.32 C77.25,75.87 80.86,80.45 84.70,84.04 L 91.00 89.93 L 91.00 131.33 C91.00,172.31 91.02,172.76 93.17,175.49 C94.37,177.01 97.18,179.08 99.42,180.10 C103.28,181.86 107.75,181.96 183.00,181.96 C258.44,181.96 262.71,181.86 266.61,180.09 ZM 102.50 172.81 C101.40,172.18 100.17,171.18 99.77,170.59 C99.36,169.99 99.02,152.47 99.02,131.66 L 99.00 93.82 L 103.25 94.66 C119.76,97.92 135.90,91.39 145.00,77.77 C147.25,74.39 149.82,69.01 150.71,65.82 L 152.33 60.00 L 208.01 60.00 C260.68,60.00 263.78,60.10 265.35,61.83 C266.84,63.48 267.00,68.74 267.00,116.65 L 267.00 169.65 L 264.69 171.83 L 262.37 174.00 L 183.44 173.97 C126.48,173.95 103.94,173.62 102.50,172.81 ZM 134.07 153.42 C135.02,152.27 135.10,151.38 134.33,150.17 C133.46,148.79 131.51,148.50 123.00,148.50 C114.49,148.50 112.54,148.79 111.67,150.17 C110.90,151.38 110.98,152.27 111.93,153.42 C112.97,154.66 115.32,155.00 123.00,155.00 C130.68,155.00 133.03,154.66 134.07,153.42 ZM 163.96 153.55 C164.62,152.75 164.87,151.16 164.50,150.01 C163.89,148.07 163.22,147.95 154.67,148.21 C145.86,148.49 145.49,148.59 145.16,150.89 C144.69,154.25 146.43,154.97 155.13,154.98 C160.59,155.00 163.10,154.59 163.96,153.55 ZM 210.50 151.50 L 210.50 148.50 L 191.61 148.50 C175.07,148.50 172.59,148.71 171.67,150.17 C170.90,151.38 170.98,152.27 171.95,153.44 C173.10,154.83 175.81,155.01 191.89,154.77 L 210.50 154.50 L 210.50 151.50 ZM 250.50 151.50 L 250.50 148.50 L 235.11 148.50 C221.83,148.50 219.57,148.73 218.67,150.17 C217.90,151.38 217.98,152.27 218.95,153.44 C220.09,154.81 222.51,155.01 235.39,154.78 L 250.50 154.50 L 250.50 151.50 ZM 251.77 98.68 C254.36,96.10 254.50,95.45 254.50,86.56 C254.50,77.99 254.29,76.93 252.08,74.58 C249.75,72.10 249.20,72.00 238.38,72.00 C227.91,72.00 226.91,72.17 224.31,74.41 C221.71,76.65 221.48,77.44 221.21,85.16 C220.88,94.88 221.95,97.68 227.01,100.31 C229.83,101.77 232.29,102.05 239.77,101.76 C248.30,101.43 249.27,101.19 251.77,98.68 ZM 106.70 86.95 C95.19,85.04 84.77,75.99 81.05,64.68 C79.30,59.34 79.49,50.04 81.48,44.05 C83.77,37.17 91.40,28.94 98.23,25.98 C114.69,18.85 133.08,25.29 140.73,40.86 C143.14,45.76 143.50,47.68 143.49,55.50 C143.48,63.31 143.13,65.16 140.83,69.50 C136.16,78.30 127.34,85.00 118.45,86.50 C116.28,86.87 113.82,87.30 113.00,87.46 C112.18,87.61 109.34,87.38 106.70,86.95 ZM 126.43 73.43 C127.68,72.18 128.00,69.48 128.00,60.34 L 128.00 48.83 L 125.00 47.69 C122.26,46.66 122.00,46.16 122.00,41.89 C122.00,35.56 119.77,32.95 113.77,32.28 C104.28,31.21 100.00,34.18 100.00,41.84 C100.00,46.03 99.67,46.83 97.50,47.82 C95.05,48.93 95.00,49.18 95.00,60.15 C95.00,75.40 94.56,75.00 111.58,75.00 C122.32,75.00 125.16,74.70 126.43,73.43 ZM 228.44 94.70 C228.15,93.94 228.04,89.76 228.21,85.41 L 228.50 77.50 L 237.60 77.21 C249.09,76.85 249.32,77.08 248.28,87.64 L 247.50 95.50 L 238.23 95.79 C231.09,96.01 228.85,95.76 228.44,94.70 ZM 101.00 61.00 L 101.00 53.00 L 111.50 53.00 L 122.00 53.00 L 122.00 61.00 L 122.00 69.00 L 111.50 69.00 L 101.00 69.00 L 101.00 61.00 ZM 106.00 42.98 C106.00,39.70 106.43,38.79 108.30,38.08 C109.57,37.59 111.82,37.43 113.30,37.72 C115.74,38.18 116.00,38.65 116.00,42.62 L 116.00 47.00 L 111.00 47.00 L 106.00 47.00 L 106.00 42.98 Z" fill="rgb(253,248,237)"/>
</g>
</svg>